<svg xmlns="http://www.w3.org/2000/svg" width="209" height="30" fill="none"><path fill="red" d="m1.125 18.133 2.25-1.078a5.2 5.2 0 0 0 1.781 1.758 4.7 4.7 0 0 0 2.367.632q1.196 0 2.016-.656.82-.655.82-1.875 0-.633-.234-1.078-.235-.47-.82-.844a7 7 0 0 0-1.102-.61q-.539-.256-1.594-.702a46 46 0 0 1-1.757-.797Q1.71 11.36 1.71 8.336q0-1.547 1.078-2.93Q3.891 4 6.023 3.625v-2.04h2.813v2.087q1.36.14 2.578 1.148 1.242.985 1.734 2.11L10.852 8.03Q9.515 6.04 7.43 6.04q-1.196 0-1.946.656-.726.656-.726 1.664 0 .399.094.727t.351.61q.258.256.492.468.258.188.774.445.515.235.867.399.351.14 1.078.445.75.305 1.219.492 3.82 1.617 3.82 4.711 0 2.11-1.289 3.492-1.266 1.36-3.328 1.735v1.922H6.023v-1.97q-1.43-.14-2.835-1.194-1.407-1.08-2.063-2.508m14.086-2.485 8.156-12.351h2.649v12.305h2.297v2.53h-2.297v4.032h-3.047v-4.031H15.21zm2.906-.046h4.852v-5.204q0-1.265.093-2.46h-.117q-.515.89-1.265 2.132zm11.578 2.953 2.555-.914a4 4 0 0 0 1.242 1.617q.82.633 1.805.633 1.477 0 2.32-.985.867-1.008.867-2.672 0-1.617-.914-2.648-.915-1.032-2.32-1.031-1.734 0-3.023 1.687l-1.946-.75.985-10.031h9.375v2.555H34.1l-.562 4.851q1.148-.82 2.79-.82 2.365 0 3.843 1.664 1.476 1.64 1.476 4.453a6.9 6.9 0 0 1-.375 2.273 6.3 6.3 0 0 1-1.078 1.993q-.703.914-1.945 1.453-1.242.54-2.836.539-2.133 0-3.562-1.055-1.43-1.078-2.157-2.812m17.25-5.813q0 7.149 2.93 7.149.82 0 1.383-.586.585-.61.89-1.64.329-1.056.47-2.25.14-1.22.14-2.673 0-1.476-.14-2.695a12 12 0 0 0-.47-2.274q-.327-1.03-.914-1.617a1.9 1.9 0 0 0-1.382-.586q-2.907 0-2.907 7.172m-3.187 0q0-2.742.539-4.734.563-1.992 1.5-3.024.938-1.031 1.922-1.476a5 5 0 0 1 2.133-.469q2.93 0 4.5 2.555 1.593 2.555 1.593 7.148 0 4.453-1.57 7.078-1.546 2.625-4.5 2.625A5.1 5.1 0 0 1 47.789 22q-.985-.445-1.945-1.453-.937-1.031-1.524-3.024-.562-2.015-.562-4.78M59.368 22v-3.61h3.937V22zm10.523-9.258q0 7.149 2.93 7.149.82 0 1.382-.586.586-.61.89-1.64.33-1.056.47-2.25.14-1.22.14-2.673 0-1.476-.14-2.695a12 12 0 0 0-.47-2.274q-.328-1.03-.913-1.617a1.9 1.9 0 0 0-1.383-.586q-2.907 0-2.906 7.172m-3.188 0q0-2.742.54-4.734.561-1.992 1.5-3.024.936-1.031 1.921-1.476a5 5 0 0 1 2.133-.469q2.93 0 4.5 2.555 1.593 2.555 1.594 7.148 0 4.453-1.57 7.078-1.548 2.625-4.5 2.625A5.1 5.1 0 0 1 70.733 22q-.984-.445-1.945-1.453-.938-1.031-1.523-3.024-.563-2.015-.563-4.78m17.25 0q0 7.149 2.93 7.149.82 0 1.383-.586.585-.61.89-1.64.328-1.056.469-2.25a23 23 0 0 0 .14-2.673q0-1.476-.14-2.695a12 12 0 0 0-.469-2.274q-.328-1.03-.914-1.617a1.9 1.9 0 0 0-1.383-.586q-2.906 0-2.906 7.172m-3.187 0q0-2.742.539-4.734.563-1.992 1.5-3.024.937-1.031 1.922-1.476a5 5 0 0 1 2.132-.469q2.931 0 4.5 2.555 1.594 2.555 1.594 7.148 0 4.453-1.57 7.078-1.547 2.625-4.5 2.625A5.1 5.1 0 0 1 84.797 22q-.985-.445-1.945-1.453-.937-1.031-1.524-3.024-.562-2.015-.562-4.78m12.75 10.617 7.148-21.093h3.117l-7.148 21.093zm10.57-5.109 2.484-.914q1.102 2.555 3.563 2.555 1.335 0 2.25-.82.914-.844.914-2.368 0-1.383-1.008-2.25-1.007-.867-2.555-.867-.843 0-1.687.094v-2.532q.609.048 1.594.047 1.242 0 2.109-.773.891-.774.891-2.133 0-1.195-.75-1.945-.75-.774-1.899-.774-2.016 0-2.953 2.672l-2.531-.797Q105 5.5 106.477 4.281q1.5-1.242 3.703-1.242 2.578 0 4.101 1.406 1.524 1.383 1.524 3.54 0 1.428-.75 2.554-.727 1.125-1.805 1.688 1.288.445 2.25 1.593.984 1.125.984 2.883 0 2.695-1.734 4.219-1.711 1.5-4.594 1.5-2.32 0-3.937-1.219-1.595-1.218-2.133-2.953M124.922 22V8.477h2.883v1.57q.351-.68 1.265-1.336.915-.657 2.203-.656 2.227 0 3.282 2.414.164-.329.422-.656.28-.33.75-.774.492-.445 1.242-.703a4.8 4.8 0 0 1 1.664-.281q4.148 0 4.148 5.25V22h-3v-8.602q0-1.405-.398-2.109-.4-.703-1.406-.703-1.196 0-1.946 1.008-.726.985-.726 2.437V22h-2.93v-8.672q0-2.742-1.828-2.742-1.266 0-1.969.937-.68.938-.68 2.461V22zm23.18-6.75q0 2.344.96 3.492.962 1.149 2.25 1.149 1.266 0 2.227-1.149.961-1.148.961-3.492 0-2.391-.961-3.516-.961-1.148-2.227-1.148-1.264 0-2.25 1.148-.96 1.125-.96 3.516m-3.047 0q0-3.024 1.593-5.11 1.595-2.085 4.664-2.085 3.048 0 4.641 2.086 1.594 2.085 1.594 5.109a9.5 9.5 0 0 1-.188 1.875 8 8 0 0 1-.609 1.922 6.8 6.8 0 0 1-1.125 1.71q-.68.728-1.805 1.196-1.101.47-2.508.469-1.382 0-2.507-.445-1.102-.47-1.805-1.172a6.8 6.8 0 0 1-1.148-1.688 9 9 0 0 1-.633-1.922q-.165-.96-.164-1.945M159.984 22V8.477h2.883v1.71h.024q.351-.75 1.289-1.43.96-.702 2.461-.702 2.015 0 3.211 1.242 1.194 1.242 1.195 4.008V22h-2.977v-8.297q0-3.117-2.109-3.117-1.289 0-2.156 1.031-.844 1.032-.844 2.555V22zm12.797-10.992V8.477h2.086V4.469h2.953v4.008h3.094v2.53h-3.094v6.657q0 .96.375 1.383.399.422 1.196.422h1.547V22h-1.922q-4.149 0-4.149-4.125v-6.867zM183.398 22V2.852h2.93v7.007h.07q.54-.773 1.477-1.289a4.2 4.2 0 0 1 2.016-.515q1.946 0 3.234 1.265 1.289 1.242 1.289 3.985V22h-2.953v-8.32q0-3.094-2.109-3.094-1.29 0-2.157 1.101-.867 1.102-.867 2.579V22zm13.079-2.812 2.132-1.243q1.407 2.063 3.657 2.063 1.101 0 1.734-.422.656-.446.656-1.172 0-.585-.539-1.031a3.5 3.5 0 0 0-1.101-.656q-.586-.235-1.758-.61a5 5 0 0 0-.305-.094 17 17 0 0 1-1.43-.539 9.4 9.4 0 0 1-1.195-.726 3.1 3.1 0 0 1-.961-1.149q-.328-.702-.328-1.617 0-1.78 1.5-2.86 1.5-1.077 3.727-1.077a6 6 0 0 1 3.14.89q1.477.867 2.203 2.227l-1.968 1.195q-1.383-1.898-3.352-1.898-1.078 0-1.664.445a1.34 1.34 0 0 0-.563 1.125q0 .585.493 1.055.515.445 1.054.656.54.21 1.524.54.258.07.375.116 4.172 1.336 4.172 4.031 0 1.665-1.407 2.836-1.382 1.149-3.937 1.149-1.969 0-3.516-.867a6 6 0 0 1-2.343-2.367"/><path stroke="red" stroke-width="3" d="M0 13.5h208"/></svg>