<svg xmlns="http://www.w3.org/2000/svg" width="60" height="60" fill="none"><rect width="60" height="60" fill="url(#a)" rx="30"/><path fill="#fff" d="M30.005 15.245c4.81 0 5.374.021 7.275.107 1.758.078 2.709.371 3.345.621.843.33 1.443.715 2.072 1.344a5.5 5.5 0 0 1 1.344 2.073c.243.636.543 1.586.622 3.344.085 1.901.107 2.466.107 7.275s-.022 5.375-.107 7.276c-.079 1.758-.372 2.708-.622 3.344-.329.844-.715 1.444-1.344 2.073a5.5 5.5 0 0 1-2.072 1.343c-.636.243-1.587.544-3.345.622-1.9.086-2.465.108-7.275.108s-5.374-.022-7.275-.108c-1.759-.078-2.709-.371-3.345-.622-.843-.328-1.444-.714-2.073-1.343a5.5 5.5 0 0 1-1.343-2.073c-.243-.636-.543-1.586-.622-3.344-.086-1.901-.107-2.466-.107-7.275s.021-5.375.107-7.276c.079-1.758.372-2.708.622-3.344.329-.844.714-1.444 1.343-2.073a5.5 5.5 0 0 1 2.073-1.344c.636-.243 1.586-.543 3.345-.621 1.9-.093 2.472-.107 7.275-.107m0-3.245c-4.889 0-5.503.021-7.425.107-1.916.086-3.224.393-4.367.836a8.8 8.8 0 0 0-3.188 2.08c-1 1-1.615 2.008-2.08 3.187-.442 1.144-.75 2.452-.835 4.374-.086 1.916-.108 2.53-.108 7.418 0 4.889.022 5.503.108 7.426.085 1.915.393 3.223.836 4.374a8.8 8.8 0 0 0 2.08 3.187c1 1 2.008 1.615 3.187 2.08 1.143.443 2.451.75 4.374.836s2.53.107 7.425.107 5.503-.022 7.425-.107c1.916-.086 3.224-.393 4.374-.836A8.8 8.8 0 0 0 45 44.989c1-1 1.615-2.008 2.08-3.187.442-1.144.75-2.452.835-4.374.086-1.923.108-2.53.108-7.426 0-4.895-.022-5.502-.108-7.425-.085-1.915-.393-3.223-.836-4.374a8.8 8.8 0 0 0-2.08-3.187c-1-1-2.008-1.615-3.187-2.08-1.143-.443-2.451-.75-4.374-.836-1.93-.079-2.544-.1-7.432-.1"/><path fill="#fff" d="M30.005 20.762c-5.103 0-9.248 4.138-9.248 9.247a9.245 9.245 0 0 0 9.248 9.248 9.245 9.245 0 0 0 9.247-9.247 9.245 9.245 0 0 0-9.247-9.248m0 15.243A6 6 0 0 1 24 30.002 6 6 0 0 1 30.005 24a6.003 6.003 0 0 1 6.003 6.003 6 6 0 0 1-6.003 6.003M39.617 22.548a2.158 2.158 0 1 0 0-4.317 2.158 2.158 0 0 0 0 4.317"/><defs><linearGradient id="a" x1="30" x2="30" y1="0" y2="60" gradientUnits="userSpaceOnUse"><stop stop-color="#FF00C8"/><stop offset="1" stop-color="#FF6A00"/></linearGradient></defs></svg>